<svg width="2257" height="564" viewBox="0 0 2257 564" fill="none" xmlns="http://www.w3.org/2000/svg">
<g clip-path="url(#clip0_13552_150)">
<path d="M848.549 537.23L924.802 489.8H964.356C965.573 489.8 966.668 490.774 966.668 492.113C966.668 493.208 966.181 493.695 965.573 494.06L928.121 516.509C925.687 517.969 924.835 520.89 924.835 523.081L924.797 537.23H972.388V454.993C972.388 453.411 971.171 452.072 969.345 452.072H923.95L847.885 499.293V537.23L848.549 537.23Z" fill="black"/>
<path d="M1473.66 537.227H1542.2V518.813H1495.37V503.38H1533.05V484.859H1495.37V470.49H1542.2V452.076H1473.66V537.227Z" fill="black"/>
<path d="M1042.79 452.076L1010.12 537.227H1032.58L1038.28 521.262H1074.76L1080.37 537.227H1103.57L1070.47 452.076H1042.79ZM1044.74 503.167L1056.67 469.786L1068.4 503.167H1044.74Z" fill="black"/>
<path d="M1196.71 470.49H1224.17V537.227H1245.88V470.49H1273.24V452.076H1196.71V470.49Z" fill="black"/>
<path d="M1165.09 504.658C1165.09 515.727 1158.28 520.198 1146.68 520.198C1135.4 520.198 1128.05 515.514 1128.05 504.658V452.076H1106.34V507.106C1106.34 531.693 1128.27 539.356 1146.68 539.356C1164.99 539.356 1186.81 531.693 1186.81 507.106V452.076H1165.09L1165.09 504.658Z" fill="black"/>
<path d="M1721.45 452.076H1695.59L1664.61 486.669V452.076H1642.9L1643 537.227H1664.61V504.87L1693.99 537.227H1721.45L1681.85 495.184L1721.45 452.076Z" fill="black"/>
<path d="M1422.57 452.077H1382.76V537.228H1422.57C1453.12 537.228 1461.53 525.839 1461.53 494.013C1461.53 464.104 1453.44 452.077 1422.57 452.077ZM1421.72 518.814H1404.48V470.49H1421.72C1435.34 470.49 1439.39 474.216 1439.39 494.013C1439.39 512.108 1434.81 518.814 1421.72 518.814Z" fill="black"/>
<path d="M1607.88 487.092L1588.08 484.857C1576.48 483.58 1573.61 480.706 1573.61 476.768C1573.61 472.404 1579.57 468.465 1591.17 468.465C1602.35 468.465 1608.2 472.617 1609.26 478.896H1630.55C1629.49 460.908 1614.37 449.732 1592.34 449.732C1566.16 449.732 1552.96 460.163 1552.96 478.577C1552.96 493.585 1561.69 500.61 1579.78 502.526L1599.9 504.655C1607.56 505.506 1611.07 508.487 1611.07 512.318C1611.07 516.682 1605.96 520.62 1593.62 520.62C1579.35 520.62 1573.61 517.001 1572.65 509.764H1551.79C1552.74 529.348 1565.52 539.354 1592.87 539.354C1617.89 539.354 1631.83 528.391 1631.83 511.893C1631.83 497.523 1623.53 488.902 1607.88 487.092Z" fill="black"/>
<path d="M1323.79 449.732C1292.82 449.732 1276.75 468.785 1276.75 494.437C1276.75 520.195 1292.82 539.354 1323.79 539.354C1354.87 539.354 1370.95 520.195 1370.95 494.437C1370.95 468.785 1354.87 449.732 1323.79 449.732ZM1323.79 520.195C1307.72 520.195 1298.89 510.403 1298.89 494.437C1298.89 478.791 1307.72 468.892 1323.79 468.892C1339.97 468.892 1348.7 478.791 1348.7 494.437C1348.7 510.403 1339.97 520.195 1323.79 520.195Z" fill="black"/>
<path d="M1766.87 529.596C1761.15 523.621 1758.29 515.629 1758.29 505.609V482.25C1758.29 475.182 1759.61 469.013 1762.26 463.753C1764.92 458.493 1768.74 454.413 1773.75 451.507C1778.76 448.601 1784.72 447.15 1791.62 447.15C1797.09 447.15 1801.78 447.973 1805.69 449.612C1809.61 451.256 1813.29 453.59 1816.74 456.619L1811.69 462.303C1808.83 459.948 1805.86 458.115 1802.79 456.808C1799.72 455.505 1796.08 454.852 1791.87 454.852C1784.21 454.852 1778.28 457.252 1774.07 462.047C1769.86 466.848 1767.76 473.497 1767.76 482V505.354C1767.76 513.438 1769.75 519.71 1773.75 524.168C1777.75 528.631 1783.54 530.863 1791.11 530.863C1795.4 530.863 1799.19 530.23 1802.48 528.968C1805.76 527.702 1808.83 525.981 1811.7 523.79L1815.86 529.852C1812.74 532.375 1809.11 534.458 1804.94 536.103C1800.77 537.742 1796.12 538.564 1790.99 538.564C1780.64 538.564 1772.59 535.577 1766.87 529.596Z" fill="black"/>
<path d="M1867.12 473.033C1871.58 475.729 1874.97 479.432 1877.28 484.145C1879.59 488.859 1880.75 494.247 1880.75 500.309V506.871C1880.75 513.015 1879.59 518.489 1877.28 523.285C1874.97 528.085 1871.58 531.829 1867.12 534.525C1862.65 537.216 1857.27 538.565 1850.95 538.565C1841.53 538.565 1834.24 535.659 1829.11 529.852C1823.98 524.046 1821.41 516.385 1821.41 506.871V500.309C1821.41 494.247 1822.55 488.859 1824.82 484.145C1827.09 479.432 1830.44 475.729 1834.86 473.033C1839.27 470.341 1844.64 468.993 1850.95 468.993C1857.27 468.993 1862.65 470.341 1867.12 473.033ZM1835.93 482.817C1832.48 486.985 1830.76 492.776 1830.76 500.181V506.743C1830.76 514.404 1832.48 520.384 1835.93 524.674C1839.38 528.969 1844.39 531.113 1850.95 531.113C1857.43 531.113 1862.46 528.969 1866.04 524.674C1869.62 520.384 1871.41 514.404 1871.41 506.743V500.181C1871.41 492.858 1869.62 487.092 1866.04 482.884C1862.46 478.676 1857.43 476.572 1850.95 476.572C1844.39 476.572 1839.38 478.651 1835.93 482.817Z" fill="black"/>
<path d="M1972.73 471.521C1975.72 473.207 1978.1 475.683 1979.86 478.967C1981.63 482.251 1982.51 486.168 1982.51 490.713V537.048H1973.17V491.597C1973.17 486.459 1972.03 482.655 1969.76 480.168C1967.49 477.686 1964.5 476.444 1960.8 476.444C1954.06 476.444 1948.47 480.443 1944.01 488.44V537.048H1934.66V490.836C1934.66 486.122 1933.55 482.547 1931.32 480.106C1929.09 477.665 1926.12 476.444 1922.42 476.444C1915.85 476.444 1910.25 480.356 1905.62 488.185V537.048H1896.28V470.51H1904.24L1904.99 479.222C1909.87 472.405 1916.31 468.993 1924.31 468.993C1928.27 468.993 1931.84 469.984 1935.05 471.96C1938.24 473.942 1940.6 476.822 1942.11 480.611C1947.25 472.864 1954.15 468.993 1962.82 468.993C1966.44 468.993 1969.74 469.836 1972.73 471.521Z" fill="black"/>
<path d="M2044.51 472.971C2048.3 475.621 2051.24 479.344 2053.35 484.145C2055.45 488.94 2056.5 494.456 2056.5 500.686V506.743C2056.5 512.723 2055.35 518.132 2053.04 522.968C2050.72 527.809 2047.48 531.619 2043.31 534.397C2039.15 537.175 2034.45 538.564 2029.23 538.564C2022.42 538.564 2016.52 536.333 2011.56 531.869V562.301H2002.21V470.132H2010.17L2010.92 478.211C2015.89 472.067 2022.67 468.993 2031.25 468.993C2036.31 468.993 2040.72 470.321 2044.51 472.971ZM2047.16 500.431C2047.16 492.857 2045.63 486.984 2042.56 482.817C2039.48 478.65 2035.17 476.571 2029.61 476.571C2025.83 476.571 2022.37 477.414 2019.26 479.094C2016.14 480.78 2013.58 483.221 2011.56 486.418V524.168C2013.91 526.527 2016.4 528.274 2019.01 529.407C2021.61 530.546 2024.61 531.113 2027.97 531.113C2033.86 531.113 2038.53 528.948 2041.98 524.612C2045.44 520.276 2047.16 514.403 2047.16 506.998V500.431Z" fill="black"/>
<path d="M2112.06 474.927C2116.01 478.885 2117.99 484.354 2117.99 491.341V537.048H2110.29L2109.66 529.346C2104.02 535.49 2096.74 538.564 2087.81 538.564C2083.94 538.564 2080.38 537.803 2077.14 536.292C2073.9 534.775 2071.29 532.61 2069.32 529.785C2067.34 526.966 2066.35 523.708 2066.35 520.001V515.833C2066.35 510.027 2068.77 505.38 2073.61 501.887C2078.45 498.394 2084.99 496.647 2093.24 496.647H2108.64V491.091C2108.64 486.209 2107.42 482.567 2104.98 480.167C2102.54 477.767 2098.8 476.572 2093.75 476.572C2090.04 476.572 2086.65 477.011 2083.58 477.895C2080.51 478.778 2077.21 480.106 2073.67 481.873L2070.64 475.561C2078.05 471.184 2085.96 468.993 2094.38 468.993C2102.2 468.993 2108.1 470.974 2112.06 474.927ZM2108.64 521.768V503.337H2093.88C2088.06 503.337 2083.58 504.471 2080.43 506.743C2077.27 509.016 2075.69 512.299 2075.69 516.595V519.373C2075.69 522.993 2076.94 525.874 2079.42 528.018C2081.9 530.168 2085.2 531.241 2089.33 531.241C2097.58 531.241 2104.02 528.085 2108.64 521.768Z" fill="black"/>
<path d="M2183.58 474.8C2187.5 478.676 2189.46 484.146 2189.46 491.214V537.048H2180.12V491.974C2180.12 486.755 2178.89 482.884 2176.45 480.356C2174.01 477.833 2170.56 476.572 2166.1 476.572C2158.36 476.572 2152 480.484 2147.03 488.313V537.048H2137.69V470.51H2145.64L2146.4 479.473C2151.62 472.486 2158.86 468.993 2168.12 468.993C2174.51 468.993 2179.67 470.934 2183.58 474.8Z" fill="black"/>
<path d="M2207.83 563.437C2206.44 563.186 2205.32 562.85 2204.48 562.426L2205.87 555.986C2208.06 556.491 2210.16 556.747 2212.18 556.747C2215.21 556.747 2217.65 555.924 2219.51 554.285C2221.36 552.641 2223 549.633 2224.43 545.256L2227.08 537.05H2222.79L2199.68 470.512H2209.53L2229.35 530.104L2247.66 470.512H2257L2232.64 545.89C2230.36 552.789 2227.61 557.503 2224.36 560.031C2221.13 562.554 2217.02 563.815 2212.06 563.815C2210.63 563.815 2209.22 563.692 2207.83 563.437Z" fill="black"/>
<path d="M723.381 509.777H688.914L680.33 537.048H670.606L699.522 448.668H712.524L742.323 537.048H732.477L723.381 509.777ZM691.315 501.948H720.858L705.961 455.613L691.315 501.948Z" fill="black"/>
<path d="M800.21 474.8C804.127 478.676 806.083 484.146 806.083 491.214V537.048H796.743V491.974C796.743 486.755 795.517 482.884 793.081 480.356C790.635 477.833 787.188 476.572 782.724 476.572C774.982 476.572 768.624 480.484 763.66 488.313V537.048H754.314V470.51H762.271L763.027 479.473C768.246 472.486 775.488 468.993 784.747 468.993C791.14 468.993 796.298 470.934 800.21 474.8Z" fill="black"/>
<path d="M2256.8 352.123L2128.11 184.642L2256.8 17.1621H2104.3L1979.69 184.642L2104.3 352.123H2256.8Z" fill="#246CFF"/>
<path d="M1649.99 207.724V352.173H1580.69V102.316H1646.73V146.399H1649.66C1655.19 131.867 1664.46 120.372 1677.48 111.914C1690.49 103.347 1706.27 99.0625 1724.82 99.0625C1742.17 99.0625 1757.29 102.859 1770.19 110.45C1783.1 118.041 1793.14 128.885 1800.29 142.983C1807.45 156.972 1811.03 173.673 1811.03 193.084V352.173H1741.73V205.447C1741.84 190.156 1737.94 178.228 1730.02 169.661C1722.11 160.985 1711.21 156.647 1697.32 156.647C1687.99 156.647 1679.75 158.654 1672.6 162.666C1665.55 166.679 1660.02 172.534 1656.01 180.234C1652.1 187.825 1650.1 196.989 1649.99 207.724Z" fill="black"/>
<path d="M1469.63 352.174V102.318H1538.93V352.174H1469.63ZM1504.43 70.1092C1494.13 70.1092 1485.3 66.6937 1477.92 59.861C1470.66 52.9212 1467.03 44.6253 1467.03 34.9732C1467.03 25.4299 1470.66 17.243 1477.92 10.4103C1485.3 3.47047 1494.13 0 1504.43 0C1514.75 0 1523.53 3.47047 1530.79 10.4103C1538.17 17.243 1541.85 25.4299 1541.85 34.9732C1541.85 44.6253 1538.17 52.9212 1530.79 59.861C1523.53 66.6937 1514.75 70.1092 1504.43 70.1092Z" fill="black"/>
<path d="M1288.9 356.89C1272.96 356.89 1258.76 354.125 1246.28 348.594C1233.81 342.955 1223.94 334.659 1216.68 323.705C1209.52 312.644 1205.94 298.873 1205.94 282.389C1205.94 268.508 1208.49 256.85 1213.59 247.416C1218.68 237.981 1225.62 230.39 1234.41 224.642C1243.19 218.894 1253.16 214.557 1264.34 211.628C1275.62 208.7 1287.44 206.64 1299.8 205.447C1314.33 203.928 1326.04 202.519 1334.93 201.217C1343.83 199.808 1350.29 197.748 1354.3 195.037C1358.31 192.325 1360.32 188.313 1360.32 182.999V182.023C1360.32 171.721 1357.06 163.75 1350.56 158.111C1344.16 152.472 1335.04 149.652 1323.22 149.652C1310.75 149.652 1300.83 152.418 1293.46 157.948C1286.08 163.371 1281.2 170.203 1278.82 178.445L1214.73 173.239C1217.98 158.057 1224.38 144.935 1233.92 133.874C1243.46 122.704 1255.78 114.137 1270.85 108.173C1286.03 102.1 1303.6 99.0625 1323.55 99.0625C1337.43 99.0625 1350.72 100.69 1363.41 103.943C1376.2 107.197 1387.53 112.239 1397.4 119.071C1407.38 125.903 1415.24 134.687 1420.98 145.423C1426.74 156.051 1429.61 168.793 1429.61 183.65V352.173H1363.89V317.525H1361.94C1357.93 325.333 1352.56 332.219 1345.84 338.184C1339.12 344.039 1331.03 348.649 1321.6 352.01C1312.16 355.263 1301.26 356.89 1288.9 356.89ZM1308.75 309.066C1318.94 309.066 1327.94 307.059 1335.75 303.047C1343.56 298.927 1349.69 293.396 1354.14 286.455C1358.58 279.514 1360.8 271.652 1360.8 262.868V236.353C1358.64 237.763 1355.65 239.064 1351.86 240.258C1348.17 241.342 1344 242.372 1339.32 243.348C1334.66 244.216 1330 245.029 1325.34 245.788C1320.67 246.439 1316.45 247.035 1312.65 247.577C1304.52 248.771 1297.42 250.668 1291.34 253.271C1285.27 255.873 1280.55 259.398 1277.19 263.844C1273.83 268.182 1272.15 273.604 1272.15 280.111C1272.15 289.545 1275.57 296.757 1282.4 301.746C1289.34 306.625 1298.12 309.066 1308.75 309.066Z" fill="black"/>
<path d="M1179.92 297.519C1178.18 297.844 1175.69 298.332 1172.44 298.982C1169.18 299.525 1165.93 299.796 1162.68 299.796C1158 299.796 1153.88 299.091 1150.31 297.68C1146.84 296.271 1144.12 293.831 1142.17 290.36C1140.22 286.782 1139.25 281.794 1139.25 275.395V154.371H1186.26V102.318H1139.25V42.4561H1069.95V102.318H1035.79V154.371H1069.95V284.505C1069.84 300.88 1073.26 314.435 1080.2 325.172C1087.14 335.908 1096.85 343.824 1109.32 348.92C1121.9 354.018 1136.53 356.241 1153.23 355.59C1162.24 355.265 1169.89 354.343 1176.18 352.825C1182.47 351.415 1187.34 350.168 1190.81 349.084L1179.92 297.519Z" fill="black"/>
<path d="M851.448 207.724V352.173H782.15V102.316H848.188V146.399H851.118C856.649 131.867 865.92 120.372 878.931 111.914C891.953 103.347 907.725 99.0625 926.267 99.0625C943.619 99.0625 958.751 102.859 971.652 110.45C984.564 118.041 994.595 128.885 1001.75 142.983C1008.91 156.972 1012.49 173.673 1012.49 193.084V352.173H943.189V205.447C943.299 190.156 939.399 178.228 931.478 169.661C923.557 160.985 912.666 156.647 898.784 156.647C889.453 156.647 881.212 158.654 874.051 162.666C867.01 166.679 861.48 172.534 857.459 180.234C853.559 187.825 851.558 196.989 851.448 207.724Z" fill="black"/>
<path d="M671.089 352.174V102.318H740.377V352.174H671.089ZM705.893 70.1092C695.592 70.1092 686.761 66.6937 679.38 59.861C672.119 52.9212 668.479 44.6253 668.479 34.9732C668.479 25.4299 672.119 17.243 679.38 10.4103C686.761 3.47047 695.592 0 705.893 0C716.194 0 724.985 3.47047 732.246 10.4103C739.627 17.243 743.307 25.4299 743.307 34.9732C743.307 44.6253 739.627 52.9212 732.246 59.861C724.985 66.6937 716.194 70.1092 705.893 70.1092Z" fill="black"/>
<path d="M490.359 356.89C474.418 356.89 460.211 354.125 447.74 348.594C435.269 342.955 425.4 334.659 418.134 323.705C410.977 312.644 407.399 298.873 407.399 282.389C407.399 268.508 409.947 256.85 415.044 247.416C420.14 237.981 427.081 230.39 435.865 224.642C444.649 218.894 454.626 214.557 465.795 211.628C477.073 208.7 488.894 206.64 501.257 205.447C515.788 203.928 527.5 202.519 536.393 201.217C545.286 199.808 551.738 197.748 555.751 195.037C559.764 192.325 561.77 188.313 561.77 182.999V182.023C561.77 171.721 558.517 163.75 552.01 158.111C545.611 152.472 536.502 149.652 524.682 149.652C512.211 149.652 502.288 152.418 494.913 157.948C487.54 163.371 482.659 170.203 480.274 178.445L416.183 173.239C419.437 158.057 425.834 144.935 435.378 133.874C444.921 122.704 457.229 114.137 472.303 108.173C487.486 102.1 505.054 99.0625 525.007 99.0625C538.887 99.0625 552.172 100.69 564.86 103.943C577.657 107.197 588.989 112.239 598.857 119.071C608.834 125.903 616.692 134.687 622.443 145.423C628.194 156.051 631.064 168.793 631.064 183.65V352.173H565.348V317.525H563.396C559.384 325.333 554.016 332.219 547.292 338.184C540.568 344.039 532.489 348.649 523.054 352.01C513.62 355.263 502.721 356.89 490.359 356.89ZM510.204 309.066C520.398 309.066 529.399 307.059 537.207 303.047C545.015 298.927 551.142 293.396 555.588 286.455C560.035 279.514 562.258 271.652 562.258 262.868V236.353C560.089 237.763 557.107 239.064 553.311 240.258C549.624 241.342 545.449 242.372 540.785 243.348C536.122 244.216 531.459 245.029 526.796 245.788C522.133 246.439 517.904 247.035 514.108 247.577C505.974 248.771 498.871 250.668 492.798 253.271C486.726 255.873 482.008 259.398 478.646 263.844C475.284 268.182 473.603 273.604 473.603 280.111C473.603 289.545 477.02 296.757 483.852 301.746C490.793 306.625 499.577 309.066 510.204 309.066Z" fill="black"/>
<path d="M0 17.0029H100.542L185.83 224.974H189.766L275.054 17.0029H375.595V352.907H296.54V146.575H293.752L213.055 350.774H162.539L81.8433 145.426H79.0549V352.906H0V17.0029Z" fill="black"/>
<path d="M2257 351.963L2128.32 184.483L2257 17.0029H2104.5L1979.89 184.483L2104.5 351.963H2257Z" fill="#246CFF"/>
<path d="M1851.01 352.123L1979.7 184.642L1851.01 17.1621H2003.52L2128.13 184.642L2003.52 352.123H1851.01Z" fill="black"/>
</g>
<defs>
<clipPath id="clip0_13552_150">
<rect width="2257" height="563.813" fill="white"/>
</clipPath>
</defs>
</svg>
